<?xml version="1.0" encoding="utf-8"?>
<!-- Generator: Adobe Illustrator 16.0.0, SVG Export Plug-In . SVG Version: 6.00 Build 0)  -->
<!DOCTYPE svg PUBLIC "-//W3C//DTD SVG 1.1//EN" "http://www.w3.org/Graphics/SVG/1.1/DTD/svg11.dtd">
<svg version="1.1" id="Layer_1" xmlns="http://www.w3.org/2000/svg" xmlns:xlink="http://www.w3.org/1999/xlink" x="0px" y="0px"
	 width="123.001px" height="32px" viewBox="0 0 123.001 32" enable-background="new 0 0 123.001 32" xml:space="preserve">
<path fill="#FF6C2C" d="M5,32h113.814c2.312,0,4.188-1.875,4.188-4.188V5c0-2.761-2.238-5-5-5H4.188C1.875,0,0,1.875,0,4.188V27
	C0,29.761,2.239,32,5,32"/>
<g>
	<path fill="#FFFFFF" d="M46.21,20.697L43.474,9.908h1.473l1.28,5.458c0.32,1.344,0.608,2.689,0.8,3.729h0.032
		c0.176-1.072,0.512-2.353,0.88-3.745l1.44-5.442h1.457l1.312,5.475c0.304,1.28,0.592,2.561,0.752,3.697h0.032
		c0.224-1.185,0.528-2.385,0.865-3.729l1.424-5.442h1.425l-3.058,10.789h-1.457l-1.36-5.619c-0.336-1.376-0.56-2.433-0.704-3.521
		h-0.032c-0.192,1.072-0.432,2.129-0.833,3.521l-1.537,5.619H46.21z"/>
	<path fill="#FFFFFF" d="M64.419,15.638h-4.193v3.89H64.9v1.169h-6.066V9.908h5.826v1.168h-4.434v3.41h4.193V15.638z"/>
	<path fill="#FFFFFF" d="M72.017,9.908h1.393v9.62h4.609v1.169h-6.002V9.908z"/>
	<path fill="#FFFFFF" d="M89.093,15.19c0,3.714-2.258,5.683-5.01,5.683c-2.85,0-4.851-2.209-4.851-5.475
		c0-3.425,2.129-5.666,5.011-5.666C87.188,9.732,89.093,11.989,89.093,15.19z M80.722,15.366c0,2.305,1.248,4.37,3.441,4.37
		c2.209,0,3.457-2.033,3.457-4.482c0-2.145-1.121-4.386-3.441-4.386C81.875,10.868,80.722,12.997,80.722,15.366z"/>
	<path fill="#FFFFFF" d="M93.779,20.697L90.257,9.908h1.504l1.682,5.314c0.463,1.457,0.863,2.77,1.152,4.033h0.031
		c0.305-1.248,0.752-2.609,1.232-4.017l1.825-5.331h1.488l-3.857,10.789H93.779z"/>
	<path fill="#FFFFFF" d="M106.771,15.638h-4.193v3.89h4.674v1.169h-6.066V9.908h5.826v1.168h-4.434v3.41h4.193V15.638z"/>
</g>
<path fill="#FFFFFF" d="M24.216,8.952c0.134-0.124,0.273-0.24,0.42-0.35c0.145-0.109,0.297-0.211,0.455-0.305
	c0.157-0.095,0.318-0.18,0.485-0.258s0.34-0.147,0.516-0.207c0.177-0.059,0.356-0.11,0.541-0.151
	c0.184-0.041,0.372-0.073,0.562-0.094c0.191-0.021,0.386-0.031,0.582-0.031c0.362,0,0.717,0.036,1.06,0.106
	c0.342,0.07,0.672,0.173,0.985,0.307c0.315,0.132,0.614,0.295,0.894,0.484s0.54,0.404,0.777,0.642
	c0.238,0.238,0.453,0.498,0.643,0.778c0.188,0.279,0.352,0.578,0.483,0.892c0.135,0.315,0.237,0.645,0.308,0.987
	c0.07,0.342,0.105,0.697,0.105,1.059c0,3.154-2.628,5.257-5.415,7.294c-2.788,2.036-3.52,2.477-3.52,2.477s-0.732-0.44-3.52-2.477
	c-2.787-2.037-5.416-4.14-5.416-7.294c0-0.362,0.037-0.717,0.107-1.059c0.07-0.342,0.173-0.672,0.306-0.987
	c0.134-0.314,0.297-0.613,0.485-0.892c0.189-0.28,0.404-0.54,0.641-0.778c0.238-0.238,0.499-0.453,0.778-0.642
	c0.28-0.189,0.579-0.352,0.894-0.484c0.314-0.134,0.645-0.237,0.986-0.307c0.342-0.07,0.696-0.106,1.06-0.106
	c0.195,0,0.39,0.01,0.581,0.031c0.19,0.021,0.379,0.053,0.562,0.094c0.185,0.041,0.364,0.092,0.54,0.151
	c0.177,0.06,0.348,0.129,0.515,0.207s0.33,0.163,0.487,0.258c0.157,0.094,0.31,0.196,0.455,0.305c0.146,0.11,0.286,0.226,0.42,0.35
	C24.111,9.076,24.082,9.076,24.216,8.952"/>
<rect x="-107.766" y="-167.428" fill="#664319" width="96.378" height="96.378"/>
<path fill="#FFFFFF" d="M-222.726-286.879h-18.926c-0.297,0-0.537,0.24-0.537,0.537v3.05c0,0.296,0.24,0.537,0.537,0.537h6.287
	c0.366,0,0.662,0.296,0.662,0.661v14.678c0,0.297,0.24,0.537,0.537,0.537h3.954c0.297,0,0.537-0.24,0.537-0.537v-14.678
	c0-0.365,0.296-0.661,0.661-0.661h6.288c0.296,0,0.537-0.241,0.537-0.537v-3.05C-222.189-286.639-222.43-286.879-222.726-286.879"/>
<path fill="#FFFFFF" d="M-194.068-279.394h-6.288c-0.365,0-0.661-0.296-0.661-0.661v-6.287c0-0.297-0.24-0.537-0.537-0.537h-3.954
	c-0.297,0-0.537,0.24-0.537,0.537v6.287c0,0.365-0.296,0.661-0.662,0.661h-6.287c-0.297,0-0.537,0.241-0.537,0.537v3.955
	c0,0.296,0.24,0.536,0.537,0.536h6.287c0.366,0,0.662,0.297,0.662,0.662v6.288c0,0.296,0.24,0.536,0.537,0.536h3.954
	c0.297,0,0.537-0.24,0.537-0.536v-6.288c0-0.365,0.296-0.662,0.661-0.662h6.288c0.296,0,0.537-0.24,0.537-0.536v-3.955
	C-193.531-279.153-193.772-279.394-194.068-279.394"/>
<path fill="#FFFFFF" d="M-322.329-286.879h-4.571c-0.298,0-0.538,0.241-0.537,0.539l0.025,6.2c0.001,0.366-0.295,0.664-0.661,0.664
	h-6.954c-0.364,0-0.659-0.294-0.661-0.658l-0.025-6.21c-0.001-0.296-0.241-0.535-0.537-0.535h-3.922
	c-0.296,0-0.536,0.24-0.536,0.537v18.926c0,0.297,0.24,0.537,0.536,0.537h4.247c0.296,0,0.537-0.24,0.537-0.537v-6.243
	c0-0.366,0.296-0.661,0.661-0.661h6.953c0.366,0,0.662,0.295,0.662,0.661v6.243c0,0.297,0.24,0.537,0.537,0.537h4.246
	c0.297,0,0.537-0.24,0.537-0.537v-18.926C-321.792-286.639-322.032-286.879-322.329-286.879"/>
<path fill="#FFFFFF" d="M-292.693-279.78c0-4.379-2.814-7.1-7.343-7.1h-9.184c-0.296,0-0.537,0.24-0.537,0.537v18.926
	c0,0.297,0.241,0.537,0.537,0.537h4.142c0.296,0,0.536-0.24,0.536-0.537v-4.953c0-0.365,0.297-0.66,0.662-0.66h1.681
	c0.235,0,0.452,0.123,0.571,0.326l3.253,5.559c0.096,0.164,0.273,0.266,0.463,0.266h4.443c0.42,0,0.678-0.462,0.456-0.819
	l-3.654-5.898l0.696-0.364C-293.857-275.067-292.693-277.133-292.693-279.78 M-300.945-276.883h-2.935
	c-0.365,0-0.662-0.296-0.662-0.661v-4.507c0-0.365,0.297-0.661,0.662-0.661h2.935c1.997,0,3.142,1.068,3.142,2.933
	C-297.803-277.939-298.948-276.883-300.945-276.883"/>
<path fill="#FFFFFF" d="M-277.37-286.879h-4.246c-0.297,0-0.537,0.24-0.537,0.537v18.926c0,0.297,0.24,0.537,0.537,0.537h4.246
	c0.297,0,0.537-0.24,0.537-0.537v-18.926C-276.833-286.639-277.073-286.879-277.37-286.879"/>
<path fill="#FFFFFF" d="M-250.951-286.879h-13.243c-0.366,0-0.663,0.297-0.663,0.663v18.8c0,0.297,0.24,0.537,0.537,0.537h4.142
	c0.296,0,0.537-0.24,0.537-0.537v-6.234c0-0.364,0.296-0.66,0.661-0.66h8.029c0.296,0,0.537-0.24,0.537-0.537v-3.128
	c0-0.296-0.241-0.536-0.537-0.536h-8.029c-0.365,0-0.661-0.297-0.661-0.662v-2.92c0-0.365,0.296-0.661,0.661-0.661h8.029
	c0.296,0,0.537-0.241,0.537-0.537v-3.05C-250.414-286.639-250.655-286.879-250.951-286.879"/>
<path fill="#FFFFFF" d="M-349.788-286.879h-18.926c-0.297,0-0.537,0.24-0.537,0.537v3.05c0,0.296,0.24,0.537,0.537,0.537h6.287
	c0.366,0,0.661,0.296,0.661,0.661v14.678c0,0.297,0.241,0.537,0.538,0.537h3.954c0.297,0,0.537-0.24,0.537-0.537v-14.678
	c0-0.365,0.296-0.661,0.661-0.661h6.288c0.296,0,0.537-0.241,0.537-0.537v-3.05C-349.251-286.639-349.492-286.879-349.788-286.879"
	/>
</svg>
